<?xml version="1.0" encoding="utf-8"?>
<!-- Generator: Adobe Illustrator 19.2.1, SVG Export Plug-In . SVG Version: 6.00 Build 0)  -->
<svg version="1.1" id="Layer_1" xmlns="http://www.w3.org/2000/svg" xmlns:xlink="http://www.w3.org/1999/xlink" x="0px" y="0px"
	 viewBox="0 0 1000 1000" style="enable-background:new 0 0 1000 1000;" xml:space="preserve">
<g>
	<path d="M790.9,466c-4.4,0-7.4,1.5-8.7,4.8c-1.4,3.3-2.2,11.7-2.2,25.1v78.2c0,13,0.8,21.5,2.4,25.1c1.3,3.5,4.7,5.4,9,5.4
		c4.6,0,10.9-1.9,12.2-5.7c1.4-3.8,2.2-12.8,2.2-27h0.1v-76c0-12.1-0.7-20.4-2.5-24.2C801.7,467.6,795.5,466,790.9,466z"/>
	<path d="M600.2,401.2c-3-1.9-8.8-2.8-16.9-2.8v194.3c10.9,0,17.8-2.2,20.2-6.8c2.4-4.3,3.8-16.3,3.8-36V435.2
		c0-13.3-0.2-22.1-1.4-25.8C605,405.5,603.2,402.8,600.2,401.2z"/>
	<path d="M986.3,433.1c-10.7-68.8-31.3-127.9-63.2-181.5C832.7,99.9,671.3,8.4,496.6,10.1c-16.1,0.2-37.7,1.3-48.4,2.4
		C274.8,29.8,118.6,145.1,49.8,306.3C-30.5,494.6,13,710.8,160,852.9c75.4,72.9,164.8,116.4,273.2,133.3c31.9,4.9,102.2,4.9,135,0
		c108-16.3,203.2-64.1,278.6-139.5c38.6-38.4,68.2-79.5,92.8-128.8c22.7-45.6,38.6-96.4,46.7-149.8
		C991.2,535.3,991.2,465,986.3,433.1z M217.9,643.6h-76.5V347.8h76.5V643.6z M480.6,643.5h-66.8V443.8l-26.9,199.7h-47.7l-28-195.2
		l-0.3,195.2h-67V347.7h99.2c3,18.1,6,39,9.3,63.3l10.8,75.1l17.7-138.3l99.7-0.1V643.5z M680.5,555.9c0,26.3-1.7,44-4.1,53
		c-2.5,8.9-6.8,16.2-13.1,21c-6,5.3-13.6,8.8-22.9,10.7c-9,1.8-22.9,3-41.1,3l-92.5-0.1V347.7H564c36.8,0,58.3,1.9,71.1,5.2
		c13,3.6,23.1,9.1,29.9,16.9c6.8,7.6,10.9,16.3,12.5,25.9c1.9,9.4,3,28.3,3,56.3V555.9z M879.5,575.7c0,17.7-1.4,30.8-3.6,39.5
		c-2.5,8.6-8.2,16.3-16.8,22.5c-8.8,6.6-19.1,9.6-31.3,9.6c-8.7,0-20-1.9-27.2-5.4c-7.6-3.8-14.4-9.6-20.7-17.2l-4.6,18.9h-68.9
		V347.8h-0.3l0.3,0v0h73.2v96.4c6.3-7.1,13.1-12.5,20.5-16.1c7.6-3.3,18.8-5.1,27.6-5.1c10.4,0,19,1.6,26.4,4.6
		c7.4,3.3,13.1,7.6,17.2,13.3c3.8,5.8,6,11.5,6.8,16.9c0.8,5.5,1.4,17.2,1.4,34.9V575.7z"/>
</g>
</svg>
