<?xml version="1.0" encoding="utf-8"?>
<!-- Generator: Adobe Illustrator 19.2.1, SVG Export Plug-In . SVG Version: 6.00 Build 0)  -->
<svg version="1.1" id="Layer_2" xmlns="http://www.w3.org/2000/svg" xmlns:xlink="http://www.w3.org/1999/xlink" x="0px" y="0px"
	 viewBox="0 0 1000 1000" style="enable-background:new 0 0 1000 1000;" xml:space="preserve">
<style type="text/css">
	.st0{fill:none;}
</style>
<g>
	<g>
		<path class="st0" d="M174,426.1c-29.8-2.8-60-0.6-89.9-0.6c0,49.5,0,98.9,0,148.4c12,0,23.3,0,35.7,0c0-39.3,0-77.5,0-116.9
			c13.2,0,25.2-0.3,37.3,0.1c13.4,0.4,21.8,9.2,21.8,22c0,12.2-8.1,20.1-21.4,20.6c-7.3,0.3-14.7,0-22.8,0c0,11.6,0,21.2,0,33
			c10.2,0,19.5,0.5,28.7-0.1c29.1-1.9,49.4-21.7,51.1-51.3C216,456.4,202.5,428.8,174,426.1z"/>
		<g>
			<path class="st0" d="M174,426.1c-29.8-2.8-60-0.6-89.9-0.6c0,49.5,0,98.9,0,148.4c12,0,23.3,0,35.7,0c0-39.3,0-77.5,0-116.9
				c13.2,0,25.2-0.3,37.3,0.1c13.4,0.4,21.8,9.2,21.8,22c0,12.2-8.1,20.1-21.4,20.6c-7.3,0.3-14.7,0-22.8,0c0,11.6,0,21.2,0,33
				c10.2,0,19.5,0.5,28.7-0.1c29.1-1.9,49.4-21.7,51.1-51.3C216,456.4,202.5,428.8,174,426.1z"/>
			<path d="M326.2,451.4c-27.7-0.1-49,21-49,48.5c0,27.1,20.7,47.4,48.4,47.4c28.2,0,47.1-19.1,47.2-47.7
				C372.8,471.1,353.9,451.5,326.2,451.4z"/>
		</g>
	</g>
	<g>
		<path class="st0" d="M325.3,419.8c-51.4,0.1-82.3,31-81.9,81.8c0.4,47.3,32.6,77.3,82.3,76.8c46.7,2.7,83.1-30.5,81.6-80
			C405.9,449.3,376,419.7,325.3,419.8z"/>
		<path class="st0" d="M174,426.1c-29.8-2.8-60-0.6-89.9-0.6c0,49.5,0,98.9,0,148.4c12,0,23.3,0,35.7,0c0-39.3,0-77.5,0-116.9
			c13.2,0,25.2-0.3,37.3,0.1c13.4,0.4,21.8,9.2,21.8,22c0,12.2-8.1,20.1-21.4,20.6c-7.3,0.3-14.7,0-22.8,0c0,11.6,0,21.2,0,33
			c10.2,0,19.5,0.5,28.7-0.1c29.1-1.9,49.4-21.7,51.1-51.3C216,456.4,202.5,428.8,174,426.1z"/>
		<path class="st0" d="M542.7,501c-31.7-28.5-61.3-55.1-90.9-81.7c-1.4,0.7-2.7,1.4-4.1,2c0,50.9,0,101.8,0,152.9
			c11.6,0,22.6,0,35.1,0c0-25.2,0-49.6,0-76.8c32.2,28.6,62.1,55.3,94.1,83.8c0-55.3,0-106.4,0-156.9c-11.6,0-22.1,0-34.1,0
			C542.7,449.7,542.7,474.1,542.7,501z"/>
		<g>
			<path class="st0" d="M325.3,419.8c-51.4,0.1-82.3,31-81.9,81.8c0.4,47.3,32.6,77.3,82.3,76.8c46.7,2.7,83.1-30.5,81.6-80
				C405.9,449.3,376,419.7,325.3,419.8z"/>
			<path class="st0" d="M542.7,501c-31.7-28.5-61.3-55.1-90.9-81.7c-1.4,0.7-2.7,1.4-4.1,2c0,50.9,0,101.8,0,152.9
				c11.6,0,22.6,0,35.1,0c0-25.2,0-49.6,0-76.8c32.2,28.6,62.1,55.3,94.1,83.8c0-55.3,0-106.4,0-156.9c-11.6,0-22.1,0-34.1,0
				C542.7,449.7,542.7,474.1,542.7,501z"/>
			<path class="st0" d="M174,426.1c-29.8-2.8-60-0.6-89.9-0.6c0,49.5,0,98.9,0,148.4c12,0,23.3,0,35.7,0c0-39.3,0-77.5,0-116.9
				c13.2,0,25.2-0.3,37.3,0.1c13.4,0.4,21.8,9.2,21.8,22c0,12.2-8.1,20.1-21.4,20.6c-7.3,0.3-14.7,0-22.8,0c0,11.6,0,21.2,0,33
				c10.2,0,19.5,0.5,28.7-0.1c29.1-1.9,49.4-21.7,51.1-51.3C216,456.4,202.5,428.8,174,426.1z"/>
			<g>
				<path class="st0" d="M174,426.1c-29.8-2.8-60-0.6-89.9-0.6c0,49.5,0,98.9,0,148.4c12,0,23.3,0,35.7,0c0-39.3,0-77.5,0-116.9
					c13.2,0,25.2-0.3,37.3,0.1c13.4,0.4,21.8,9.2,21.8,22c0,12.2-8.1,20.1-21.4,20.6c-7.3,0.3-14.7,0-22.8,0c0,11.6,0,21.2,0,33
					c10.2,0,19.5,0.5,28.7-0.1c29.1-1.9,49.4-21.7,51.1-51.3C216,456.4,202.5,428.8,174,426.1z"/>
				<path class="st0" d="M542.7,501c-31.7-28.5-61.3-55.1-90.9-81.7c-1.4,0.7-2.7,1.4-4.1,2c0,50.9,0,101.8,0,152.9
					c11.6,0,22.6,0,35.1,0c0-25.2,0-49.6,0-76.8c32.2,28.6,62.1,55.3,94.1,83.8c0-55.3,0-106.4,0-156.9c-11.6,0-22.1,0-34.1,0
					C542.7,449.7,542.7,474.1,542.7,501z"/>
				<path class="st0" d="M325.3,419.8c-51.4,0.1-82.3,31-81.9,81.8c0.4,47.3,32.6,77.3,82.3,76.8c46.7,2.7,83.1-30.5,81.6-80
					C405.9,449.3,376,419.7,325.3,419.8z"/>
				<g>
					<path class="st0" d="M542.7,501c-31.7-28.5-61.3-55.1-90.9-81.7c-1.4,0.7-2.7,1.4-4.1,2c0,50.9,0,101.8,0,152.9
						c11.6,0,22.6,0,35.1,0c0-25.2,0-49.6,0-76.8c32.2,28.6,62.1,55.3,94.1,83.8c0-55.3,0-106.4,0-156.9c-11.6,0-22.1,0-34.1,0
						C542.7,449.7,542.7,474.1,542.7,501z"/>
					<path class="st0" d="M325.3,419.8c-51.4,0.1-82.3,31-81.9,81.8c0.4,47.3,32.6,77.3,82.3,76.8c46.7,2.7,83.1-30.5,81.6-80
						C405.9,449.3,376,419.7,325.3,419.8z"/>
					<path class="st0" d="M174,426.1c-29.8-2.8-60-0.6-89.9-0.6c0,49.5,0,98.9,0,148.4c12,0,23.3,0,35.7,0c0-39.3,0-77.5,0-116.9
						c13.2,0,25.2-0.3,37.3,0.1c13.4,0.4,21.8,9.2,21.8,22c0,12.2-8.1,20.1-21.4,20.6c-7.3,0.3-14.7,0-22.8,0c0,11.6,0,21.2,0,33
						c10.2,0,19.5,0.5,28.7-0.1c29.1-1.9,49.4-21.7,51.1-51.3C216,456.4,202.5,428.8,174,426.1z"/>
					<path class="st0" d="M887,479.5c-15.4-2.7-31.4-2.8-47.5-4.1c0-6.4,0-12.7,0-20.7c26.3,0,51.7,0,77.1,0c0-11.3,0-20.8,0-30.5
						c-37.4,0-73.7,0-110.6,0c0,27.8,0,54.7,0,83.4c22.1,0,42.7-0.6,63.2,0.3c10,0.4,19.6,4.2,20.9,16.6
						c1.2,12.1-5.9,17.5-16.7,20.4c-19.7,5.2-30.9-0.8-39.4-21.7c-10.2,0-20.3,0-30.3,0c-2.9,26.6,6.9,42.3,30.9,50.1
						c19.3,6.3,38.6,6.2,57.7-0.6c22.6-8,34.9-26,33.6-49.2C924.5,498.8,912.3,484,887,479.5z"/>
					<g>
						<path class="st0" d="M325.3,419.8c-51.4,0.1-82.3,31-81.9,81.8c0.4,47.3,32.6,77.3,82.3,76.8c46.7,2.7,83.1-30.5,81.6-80
							C405.9,449.3,376,419.7,325.3,419.8z"/>
						<path class="st0" d="M174,426.1c-29.8-2.8-60-0.6-89.9-0.6c0,49.5,0,98.9,0,148.4c12,0,23.3,0,35.7,0c0-39.3,0-77.5,0-116.9
							c13.2,0,25.2-0.3,37.3,0.1c13.4,0.4,21.8,9.2,21.8,22c0,12.2-8.1,20.1-21.4,20.6c-7.3,0.3-14.7,0-22.8,0c0,11.6,0,21.2,0,33
							c10.2,0,19.5,0.5,28.7-0.1c29.1-1.9,49.4-21.7,51.1-51.3C216,456.4,202.5,428.8,174,426.1z"/>
						<path class="st0" d="M542.7,501c-31.7-28.5-61.3-55.1-90.9-81.7c-1.4,0.7-2.7,1.4-4.1,2c0,50.9,0,101.8,0,152.9
							c11.6,0,22.6,0,35.1,0c0-25.2,0-49.6,0-76.8c32.2,28.6,62.1,55.3,94.1,83.8c0-55.3,0-106.4,0-156.9c-11.6,0-22.1,0-34.1,0
							C542.7,449.7,542.7,474.1,542.7,501z"/>
						<path class="st0" d="M887,479.5c-15.4-2.7-31.4-2.8-47.5-4.1c0-6.4,0-12.7,0-20.7c26.3,0,51.7,0,77.1,0c0-11.3,0-20.8,0-30.5
							c-37.4,0-73.7,0-110.6,0c0,27.8,0,54.7,0,83.4c22.1,0,42.7-0.6,63.2,0.3c10,0.4,19.6,4.2,20.9,16.6
							c1.2,12.1-5.9,17.5-16.7,20.4c-19.7,5.2-30.9-0.8-39.4-21.7c-10.2,0-20.3,0-30.3,0c-2.9,26.6,6.9,42.3,30.9,50.1
							c19.3,6.3,38.6,6.2,57.7-0.6c22.6-8,34.9-26,33.6-49.2C924.5,498.8,912.3,484,887,479.5z"/>
						<path d="M986.3,433.1c-10.7-68.8-31.3-127.9-63.2-181.5C832.7,99.9,671.3,8.4,496.6,10.1c-16.1,0.2-37.7,1.3-48.4,2.4
							C274.8,29.8,118.6,145.1,49.8,306.3C-30.5,494.6,13,710.8,160,852.9c75.4,72.9,164.8,116.4,273.2,133.3
							c31.9,4.9,102.2,4.9,135,0c108-16.3,203.2-64.1,278.6-139.5c38.6-38.4,68.2-79.5,92.8-128.8c22.7-45.6,38.6-96.4,46.7-149.8
							C991.2,535.3,991.2,465,986.3,433.1z M214.6,481.4c-1.7,29.6-22,49.4-51.1,51.3c-9.2,0.6-18.5,0.1-28.7,0.1
							c0-11.9,0-21.5,0-33c8.1,0,15.4,0.2,22.8,0c13.3-0.5,21.3-8.4,21.4-20.6c0-12.8-8.4-21.6-21.8-22c-12-0.3-24.1-0.1-37.3-0.1
							c0,39.4,0,77.5,0,116.9c-12.4,0-23.7,0-35.7,0c0-49.5,0-98.9,0-148.4c29.9,0,60.1-2.2,89.9,0.6
							C202.5,428.8,216,456.4,214.6,481.4z M325.8,578.4c-49.7,0.5-81.9-29.5-82.3-76.8c-0.4-50.8,30.5-81.7,81.9-81.8
							c50.7-0.1,80.6,29.5,82.1,78.6C408.9,547.9,372.5,581.1,325.8,578.4z M576.8,581.2c-32-28.5-61.9-55.1-94.1-83.8
							c0,27.2,0,51.6,0,76.8c-12.5,0-23.4,0-35.1,0c0-51.1,0-102,0-152.9c1.4-0.7,2.7-1.4,4.1-2c29.6,26.6,59.2,53.2,90.9,81.7
							c0-26.9,0-51.3,0-76.7c12,0,22.5,0,34.1,0C576.8,474.9,576.8,525.9,576.8,581.2z M709.6,573.8c-25.9,4-52.9,0.7-80,0.7
							c0-50.3,0-99.7,0-152.7c30.4,1.7,61.1-0.2,90.2,5.9c32.9,6.9,46.6,34.3,47.9,66.2C769.3,532.1,753.4,567,709.6,573.8z
							 M892.4,572.7c-19.2,6.8-38.5,6.8-57.7,0.6c-24-7.8-33.8-23.5-30.9-50.1c10,0,20.1,0,30.3,0c8.5,20.9,19.7,26.9,39.4,21.7
							c10.8-2.8,17.9-8.2,16.7-20.4c-1.2-12.4-10.9-16.2-20.9-16.6c-20.5-0.9-41.1-0.3-63.2-0.3c0-28.7,0-55.6,0-83.4
							c36.8,0,73.1,0,110.6,0c0,9.8,0,19.3,0,30.5c-25.4,0-50.8,0-77.1,0c0,8,0,14.3,0,20.7c16.2,1.3,32.1,1.3,47.5,4.1
							c25.3,4.5,37.5,19.3,38.9,44C927.2,546.7,915,564.7,892.4,572.7z"/>
						<path d="M665.3,455.6c0,29.4,0,57.3,0,87.1c22.6-0.5,46.5,6.2,60.5-17.5c10.4-17.6,10.9-37.2-0.8-54.4
							C710.2,449,687,456.5,665.3,455.6z"/>
					</g>
				</g>
			</g>
		</g>
	</g>
</g>
</svg>
