<?xml version="1.0" encoding="utf-8"?>
<!-- Generator: Adobe Illustrator 19.2.1, SVG Export Plug-In . SVG Version: 6.00 Build 0)  -->
<svg version="1.1" id="Layer_1" xmlns="http://www.w3.org/2000/svg" xmlns:xlink="http://www.w3.org/1999/xlink" x="0px" y="0px"
	 viewBox="0 0 1000 1000" style="enable-background:new 0 0 1000 1000;" xml:space="preserve">
<g>
	<path d="M986.3,433.1c-10.7-68.8-31.3-127.9-63.2-181.5C832.7,99.9,671.3,8.4,496.6,10.1c-16.1,0.2-37.7,1.3-48.4,2.4
		C274.8,29.8,118.6,145.1,49.8,306.3C-30.5,494.6,13,710.8,160,852.9c75.4,72.9,164.8,116.4,273.2,133.3c31.9,4.9,102.2,4.9,135,0
		c108-16.3,203.2-64.1,278.6-139.5c38.6-38.4,68.2-79.5,92.8-128.8c22.7-45.6,38.6-96.4,46.7-149.8
		C991.2,535.3,991.2,465,986.3,433.1z M765.3,363.9c0.3,5.9,0.4,11.8,0.4,17.7c0,180.9-137.7,389.5-389.5,389.5
		c-77.3,0-149.2-22.7-209.8-61.5c10.8,1.3,21.7,1.9,32.7,1.9c64.1,0,123.1-21.9,170-58.6c-59.9-1.1-110.5-40.7-127.9-95.1
		c8.3,1.6,16.9,2.5,25.7,2.5c12.5,0,24.6-1.7,36.1-4.8c-62.6-12.6-109.8-67.9-109.8-134.2c0-0.6,0-1.1,0-1.7
		c18.4,10.2,39.5,16.4,62,17.1c-36.7-24.5-60.9-66.4-60.9-113.9c0-25.1,6.7-48.6,18.5-68.8c67.5,82.8,168.4,137.3,282.2,143
		c-2.3-10-3.5-20.5-3.5-31.2c0-75.6,61.3-136.9,136.9-136.9c39.4,0,74.9,16.6,99.9,43.2c31.2-6.1,60.5-17.5,86.9-33.2
		c-10.2,31.9-31.9,58.8-60.2,75.7c27.7-3.4,54.1-10.7,78.6-21.6C815.3,320.5,792,344.6,765.3,363.9z"/>
</g>
</svg>
